<?xml version="1.0" encoding="UTF-8"?>
<svg version="1.1" xmlns="http://www.w3.org/2000/svg" width="446" height="129">
<path d="M0 0 C0.71139633 -0.00335861 1.42279266 -0.00671722 2.15574646 -0.01017761 C4.49195127 -0.01962522 6.82808396 -0.02162744 9.16430664 -0.02270508 C10.79806039 -0.02592144 12.43181386 -0.0292858 14.06556702 -0.03279114 C17.48414782 -0.03876654 20.9027034 -0.04063262 24.32128906 -0.04003906 C28.69016318 -0.03993741 33.0588749 -0.05359983 37.42771053 -0.07081127 C40.80014278 -0.08195707 44.17253604 -0.08395749 47.54498482 -0.08342934 C49.15524417 -0.08460516 50.76550467 -0.08900454 52.37574577 -0.0967617 C54.63212189 -0.10661603 56.88814889 -0.10366256 59.14453125 -0.09765625 C60.42549179 -0.09908127 61.70645233 -0.10050629 63.02622986 -0.10197449 C66.82569384 0.15818667 70.02248315 0.97197412 73.63696289 2.14526367 C74.79196289 2.51651367 75.94696289 2.88776367 77.13696289 3.27026367 C83.92521378 6.90682665 88.35415647 12.81625359 90.63696289 20.14526367 C92.33966477 28.79222939 92.93501209 37.22773463 92.90258789 46.02416992 C92.90450134 47.19809799 92.90641479 48.37202606 92.90838623 49.58152771 C92.90973659 52.04279802 92.90612129 54.50407574 92.89770508 56.96533203 C92.8869797 60.70190627 92.89764512 64.43800088 92.91040039 68.17456055 C92.90907878 70.58276472 92.90651636 72.99096859 92.90258789 75.39916992 C92.90663635 76.49951065 92.91068481 77.59985138 92.91485596 78.73353577 C92.84281162 90.82725901 91.45324706 101.92083742 84.63696289 112.14526367 C83.97696289 112.14526367 83.31696289 112.14526367 82.63696289 112.14526367 C82.63696289 112.80526367 82.63696289 113.46526367 82.63696289 114.14526367 C81.13305664 115.36401367 81.13305664 115.36401367 79.07446289 116.64526367 C78.41317383 117.06807617 77.75188477 117.49088867 77.07055664 117.92651367 C71.51786272 120.70731705 66.19036943 121.39976409 60.0402832 121.43579102 C59.31565887 121.44250824 58.59103455 121.44922546 57.8444519 121.45614624 C55.46792589 121.47501829 53.09168401 121.47904516 50.71508789 121.48120117 C49.04750456 121.48763747 47.37992234 121.49436644 45.71234131 121.50137329 C42.22234482 121.51331974 38.73244712 121.51705692 35.24243164 121.51586914 C30.79643377 121.5156663 26.35107762 121.54294355 21.90523148 121.57741356 C18.46141724 121.59978417 15.01775484 121.60370356 11.57387543 121.60264969 C9.93620345 121.60499134 8.29852635 121.61373281 6.66092682 121.62931442 C-5.55551003 121.73465735 -16.45871407 120.9518216 -25.71069336 112.05932617 C-33.83803164 102.64467899 -33.67199085 90.48709105 -33.66381836 78.68823242 C-33.66771613 77.29494604 -33.67205298 75.90166082 -33.67680359 74.50837708 C-33.68422659 71.59945817 -33.68400372 68.69066071 -33.67871094 65.78173828 C-33.67292862 62.08703745 -33.68983611 58.39283995 -33.71305561 54.69822216 C-33.72791871 51.82311688 -33.72864763 48.94812923 -33.72554588 46.07299232 C-33.72629655 44.05923368 -33.74006695 42.04549306 -33.75422668 40.03178406 C-33.69459396 28.0514868 -32.33927528 16.31350839 -23.65991211 7.39526367 C-16.55439093 0.96940104 -9.41378623 0.02803034 0 0 Z " fill="#4393FA" transform="translate(43.363037109375,2.854736328125)"/>
<path d="M0 0 C7.26 0 14.52 0 22 0 C24.48591999 5.59331999 26.62560866 10.57588901 28.4375 16.3125 C30.30698667 22.13514134 32.48041179 27.73003264 34.984375 33.31640625 C36.07790228 36.2058418 36.58724748 38.94473404 37 42 C37.66 42 38.32 42 39 42 C39.14695313 41.40316406 39.29390625 40.80632812 39.4453125 40.19140625 C41.0189974 34.10468249 42.90975095 28.17495765 45 22.25 C45.2489502 21.54174072 45.49790039 20.83348145 45.75439453 20.10375977 C47.34169309 15.65838825 49.10404442 11.32514867 51 7 C51.99 4.69 52.98 2.38 54 0 C60.93 0 67.86 0 75 0 C75 22.11 75 44.22 75 67 C69.39 67 63.78 67 58 67 C57.93941406 64.84597656 57.87882812 62.69195312 57.81640625 60.47265625 C57.75465759 58.3942499 57.69125309 56.31590025 57.62768555 54.23754883 C57.5842837 52.7893576 57.54261256 51.34111346 57.50268555 49.89282227 C57.44510938 47.81510441 57.38137972 45.73765427 57.31640625 43.66015625 C57.26141968 41.78275757 57.26141968 41.78275757 57.20532227 39.86743164 C57.32196094 37.10369496 57.32196094 37.10369496 56 36 C55.67386719 36.99 55.34773438 37.98 55.01171875 39 C52.79154596 45.71581002 50.54746556 52.39974832 48 59 C47.43607629 60.49946534 46.87356981 61.99946446 46.3125 63.5 C45.879375 64.655 45.44625 65.81 45 67 C40.05 67 35.1 67 30 67 C27.43130004 61.50829663 25.37820008 56.17767529 23.71875 50.3515625 C22.72612811 47.10396263 21.37337333 44.10501795 20 41 C19.34 39.02 18.68 37.04 18 35 C17.67 45.56 17.34 56.12 17 67 C11.39 67 5.78 67 0 67 C0 44.89 0 22.78 0 0 Z " fill="#F1F0F1" transform="translate(156,30)"/>
<path d="M0 0 C8.63658214 6.43537533 12.26974152 12.91065244 14.53125 23.41796875 C15.71329704 34.56298373 13.99131728 45.22910764 7.3203125 54.4140625 C1.10261854 61.37842276 -7.24522087 64.82446663 -16.41796875 65.69921875 C-26.23966225 66.00103776 -35.79574059 63.91216386 -43.46875 57.41796875 C-43.46875 56.75796875 -43.46875 56.09796875 -43.46875 55.41796875 C-44.07332031 55.18980469 -44.67789063 54.96164063 -45.30078125 54.7265625 C-48.09219015 53.04165803 -48.79054954 51.41435523 -50.15625 48.48046875 C-50.57261719 47.60519531 -50.98898438 46.72992188 -51.41796875 45.828125 C-55.25723463 37.02207648 -54.9028848 24.36681294 -51.96875 15.29296875 C-48.15010667 6.69434531 -42.23649965 1.17770107 -33.765625 -2.70703125 C-23.37042336 -6.66710806 -9.44560265 -6.0529574 0 0 Z M-30.28125 14.73046875 C-35.00297282 21.44028539 -34.09770286 30.62681526 -33.46875 38.41796875 C-32.32516101 42.93384571 -30.54973988 45.63179429 -26.71875 48.41796875 C-21.77225177 49.93996821 -17.648428 50.3096552 -12.71875 48.29296875 C-9.08656591 45.26614867 -6.91624627 42.1333711 -5.71875 37.54296875 C-5.08357551 29.60328767 -4.68525736 21.64532399 -9.78125 15.04296875 C-16.22809764 8.7460478 -23.1165208 9.54221657 -30.28125 14.73046875 Z " fill="#EEEDED" transform="translate(292.46875,33.58203125)"/>
<path d="M0 0 C8.27684247 5.86178645 12.80597738 12.1629027 15 22 C15.87026664 32.02787241 16.11398179 42.06437838 11 51 C10.46375 52.03125 9.9275 53.0625 9.375 54.125 C8.694375 55.053125 8.694375 55.053125 8 56 C7.34 56 6.68 56 6 56 C6 56.66 6 57.32 6 58 C-1.44798461 64.46630183 -11.61404198 66.6107532 -21.23828125 66.28125 C-32.37994677 65.14659665 -39.773208 61.14017881 -46.875 52.5625 C-53.1629201 43.95948205 -53.78846147 33.08173026 -52.3125 22.75 C-50.35195285 12.95999508 -46.01919217 6.128782 -38 0 C-26.59440278 -6.09496814 -11.3233414 -6.4016459 0 0 Z M-29 15 C-33.89122828 21.33946905 -33.94475384 29.34749388 -33 37 C-31.76857097 41.38539521 -30.22237391 44.81466773 -26.9375 48 C-21.86003944 50.62062481 -17.22770459 50.69888772 -11.8125 49 C-7.31385685 45.80096487 -5.72557645 41.95697253 -4.4296875 36.67578125 C-3.4061433 29.91385628 -4.42897274 23.33011044 -7 17 C-10.2506081 13.29774185 -12.82660756 11.2963717 -17.75 10.625 C-22.166759 11.13462604 -25.47671816 12.24134528 -29 15 Z " fill="#EFEFEF" transform="translate(365,33)"/>
<path d="M0 0 C1.34731453 -0.01441132 1.34731453 -0.01441132 2.72184753 -0.02911377 C3.69575943 -0.03336365 4.66967133 -0.03761353 5.6730957 -0.04199219 C6.67468216 -0.04769226 7.67626862 -0.05339233 8.70820618 -0.05926514 C10.83247824 -0.06872475 12.95676505 -0.07525292 15.08105469 -0.07910156 C18.31837961 -0.08877605 21.55506134 -0.11977777 24.79223633 -0.15136719 C26.85668569 -0.15790035 28.92113958 -0.16314959 30.9855957 -0.16699219 C31.94938644 -0.17933899 32.91317719 -0.19168579 33.90617371 -0.20440674 C40.86278294 -0.18156413 45.76506712 0.48825007 51.06347656 5.37792969 C53.05940361 8.85441072 53.25626178 11.78598907 53.2277832 15.69238281 C53.23708107 16.76268738 53.23708107 16.76268738 53.24656677 17.85461426 C53.25364399 19.35732668 53.2505275 20.86011784 53.23779297 22.36279297 C53.22391336 24.65511925 53.25803302 26.94336891 53.29614258 29.23535156 C53.2970938 30.70019631 53.29523477 32.16504613 53.2902832 33.62988281 C53.30354141 34.31022583 53.31679962 34.99056885 53.33045959 35.69152832 C53.26294688 39.16150293 52.66871254 41.14952216 50.80932617 44.0925293 C46.16962544 47.14140352 42.10684762 46.860275 36.6652832 46.79003906 C35.06583107 46.793657 35.06583107 46.793657 33.43406677 46.79734802 C31.18224362 46.79636988 28.93039633 46.78298423 26.67871094 46.75805664 C23.23915515 46.72378504 19.80217428 46.7373919 16.36254883 46.75683594 C14.17178272 46.74993625 11.98102323 46.74026276 9.7902832 46.72753906 C8.765121 46.73249893 7.7399588 46.7374588 6.68373108 46.74256897 C0.87884449 46.64724989 -2.86599882 46.24814821 -7.33862305 42.16113281 C-11.76793215 36.67028762 -10.8238544 30.02527343 -10.78466797 23.33178711 C-10.77613381 21.10144467 -10.80498342 18.87364601 -10.83666992 16.64355469 C-10.83828162 15.22102941 -10.83770501 13.79849961 -10.8347168 12.37597656 C-10.83656982 11.08812256 -10.83842285 9.80026855 -10.84033203 8.47338867 C-10.25819239 4.63013393 -9.37252311 3.4960721 -6.33862305 1.16113281 C-4.00307425 -0.00664159 -2.60241802 0.02244648 0 0 Z " fill="#F5F6FA" transform="translate(40.338623046875,37.8388671875)"/>
<path d="M0 0 C17.49 0 34.98 0 53 0 C53 14.59163987 53 14.59163987 48.875 19.1875 C47.95942205 20.25651642 47.04545657 21.32691526 46.1328125 22.3984375 C45.38306152 23.24873535 45.38306152 23.24873535 44.61816406 24.11621094 C41.51426154 27.72962553 38.65560695 31.5393917 35.75 35.3125 C34.10334507 37.42421437 32.45555601 39.53503949 30.80761719 41.64575195 C28.17509794 45.07435583 25.59360243 48.54186343 23 52 C32.9 52 42.8 52 53 52 C54 56 54 56 53 67 C35.51 67 18.02 67 0 67 C0 52.08353761 0 52.08353761 6.3125 45.0625 C7.59899685 43.52607391 8.8854547 41.98961518 10.171875 40.453125 C10.81705078 39.70611328 11.46222656 38.95910156 12.12695312 38.18945312 C14.87551961 34.9765824 17.46758063 31.64960739 20.0625 28.3125 C20.49022705 27.77310791 20.9179541 27.23371582 21.35864258 26.67797852 C24.37228045 22.8721844 27.20205315 18.96500489 30 15 C29.12674072 15.00523682 28.25348145 15.01047363 27.35375977 15.01586914 C24.12410727 15.03287751 20.89447755 15.04543369 17.66479492 15.05493164 C16.26504772 15.0599708 14.8653058 15.06680216 13.46557617 15.07543945 C11.45754223 15.0875232 9.44947043 15.09269807 7.44140625 15.09765625 C6.23170166 15.10289307 5.02199707 15.10812988 3.77563477 15.11352539 C1 15 1 15 0 14 C0 9.38 0 4.76 0 0 Z " fill="#ECECEC" transform="translate(385,30)"/>
<path d="M0 0 C0.33 0 0.66 0 1 0 C3.52574779 9.14337786 3.22867732 18.23339971 3.125 27.625 C3.11494793 29.21744227 3.10582603 30.80989071 3.09765625 32.40234375 C3.07582408 36.26838365 3.04141784 40.13412236 3 44 C3.99 44 4.98 44 6 44 C6 45.32 6 46.64 6 48 C5.443125 47.773125 4.88625 47.54625 4.3125 47.3125 C1.86700525 46.71702093 1.86700525 46.71702093 -0.25 48.5625 C-3.32070473 50.16764111 -4.00214317 50.09996804 -7.25 49.375 C-8.4875 48.92125 -9.725 48.4675 -11 48 C-11.33 47.01 -11.66 46.02 -12 45 C-16.67742671 46.3192742 -20.46273048 48.3369064 -24.55859375 50.87890625 C-36.46970893 56.34849034 -54.48006394 54.17483874 -67.2421875 53.25390625 C-70.18197973 53.05527164 -73.05671432 52.94805966 -76 53 C-75.67 52.01 -75.34 51.02 -75 50 C-77.64 49.34 -80.28 48.68 -83 48 C-83 47.34 -83 46.68 -83 46 C-83.99 46 -84.98 46 -86 46 C-86.33 44.68 -86.66 43.36 -87 42 C-87.99 42.495 -87.99 42.495 -89 43 C-89.02465504 38.60343827 -89.04283842 34.2069128 -89.05493164 29.81030273 C-89.05997121 28.31355082 -89.06680287 26.81680384 -89.07543945 25.32006836 C-89.08752159 23.17300193 -89.09323191 21.02600038 -89.09765625 18.87890625 C-89.10289307 17.5854126 -89.10812988 16.29191895 -89.11352539 14.95922852 C-89 12 -89 12 -88 11 C-87.83900597 8.97147522 -87.6811709 6.94224706 -87.57421875 4.91015625 C-87 3 -87 3 -84.96411133 1.88061523 C-83.99187622 1.44471069 -83.99187622 1.44471069 -83 1 C-83.01571045 2.00377686 -83.0314209 3.00755371 -83.04760742 4.04174805 C-83.10205114 7.77831955 -83.13640226 11.51485621 -83.16479492 15.25170898 C-83.17984876 16.86667789 -83.20029648 18.48160613 -83.22631836 20.09643555 C-83.26285286 22.42246555 -83.27976015 24.74795341 -83.29296875 27.07421875 C-83.30845261 27.79212082 -83.32393646 28.51002289 -83.33988953 29.24967957 C-83.3413716 33.69950462 -82.83950873 36.5306914 -80 40 C-75.39312215 44.11151464 -69.80906902 43.46760829 -63.96875 43.46875 C-62.36574036 43.48017029 -62.36574036 43.48017029 -60.73034668 43.49182129 C-58.47438897 43.50261062 -56.21838136 43.50548016 -53.96240234 43.50097656 C-50.51184947 43.50000334 -47.06351373 43.5416596 -43.61328125 43.5859375 C-41.41927547 43.59114397 -39.22526196 43.5938327 -37.03125 43.59375 C-36.00092651 43.61014526 -34.97060303 43.62654053 -33.90905762 43.64343262 C-29.23294106 43.59831785 -26.76121438 43.53086162 -22.8503418 40.8034668 C-20.81914613 37.72598694 -20.37504074 36.19844677 -20.36328125 32.55078125 C-20.34330078 31.53822266 -20.32332031 30.52566406 -20.30273438 29.48242188 C-20.30595703 28.43634766 -20.30917969 27.39027344 -20.3125 26.3125 C-20.29596425 24.2251793 -20.27162182 22.13790116 -20.23828125 20.05078125 C-20.23868408 19.12950439 -20.23908691 18.20822754 -20.23950195 17.2590332 C-20 15 -20 15 -18 13 C-17.97421875 14.24136719 -17.9484375 15.48273437 -17.921875 16.76171875 C-17.86557918 18.40368028 -17.80823217 20.045606 -17.75 21.6875 C-17.73582031 22.50412109 -17.72164063 23.32074219 -17.70703125 24.16210938 C-17.49619127 29.36985682 -16.90781157 32.23540666 -13 36 C-11.52393882 37.32257128 -10.00277718 38.59682787 -8.4375 39.8125 C-7.67308594 40.41707031 -6.90867187 41.02164063 -6.12109375 41.64453125 C-3.99821581 43.26924055 -3.99821581 43.26924055 -1 43 C-0.67 28.81 -0.34 14.62 0 0 Z " fill="#2B6BC9" transform="translate(114,40)"/>
<path d="M0 0 C1.65 0.33 3.3 0.66 5 1 C5 14.86 5 28.72 5 43 C3.02 43.495 3.02 43.495 1 44 C-1.69140625 42.26953125 -1.69140625 42.26953125 -4.5625 39.8125 C-5.98755859 38.61560547 -5.98755859 38.61560547 -7.44140625 37.39453125 C-11.96336342 33.16253163 -13.40181901 30.82429555 -13.62060547 24.65307617 C-13.64280468 12.5138067 -13.64280468 12.5138067 -9.875 8.1875 C-8.61881709 7.0832747 -7.32766375 6.01716174 -6 5 C-5.46375 4.46890625 -4.9275 3.9378125 -4.375 3.390625 C-2.875 1.9375 -2.875 1.9375 0 0 Z " fill="#F5F8FB" transform="translate(109,40)"/>
<path d="M0 0 C1.49632812 2.99265624 1.05464151 5.68692739 0.9921875 9.01953125 C0.9746633 10.44856051 0.95775578 11.87759744 0.94140625 13.30664062 C0.91050531 15.55824007 0.87506281 17.80945568 0.82861328 20.06079102 C0.78610692 22.23458545 0.76278288 24.40793327 0.7421875 26.58203125 C0.7201123 27.88374268 0.69803711 29.1854541 0.67529297 30.52661133 C1.11957024 35.27904195 2.46929606 37.63388788 5.99804688 40.78320312 C10.6155788 42.65485074 15.09332753 42.46778469 20.03125 42.46875 C21.63425964 42.48017029 21.63425964 42.48017029 23.26965332 42.49182129 C25.52561103 42.50261062 27.78161864 42.50548016 30.03759766 42.50097656 C33.48815053 42.50000334 36.93648627 42.5416596 40.38671875 42.5859375 C42.58072453 42.59114397 44.77473804 42.5938327 46.96875 42.59375 C47.99907349 42.61014526 49.02939697 42.62654053 50.09094238 42.64343262 C54.76705894 42.59831785 57.23878562 42.53086162 61.1496582 39.8034668 C63.18085387 36.72598694 63.62495926 35.19844677 63.63671875 31.55078125 C63.65669922 30.53822266 63.67667969 29.52566406 63.69726562 28.48242188 C63.69404297 27.43634766 63.69082031 26.39027344 63.6875 25.3125 C63.70403575 23.2251793 63.72837818 21.13790116 63.76171875 19.05078125 C63.76131592 18.12950439 63.76091309 17.20822754 63.76049805 16.2590332 C64 14 64 14 66 12 C66.02578125 13.24136719 66.0515625 14.48273437 66.078125 15.76171875 C66.13442082 17.40368028 66.19176783 19.045606 66.25 20.6875 C66.26417969 21.50412109 66.27835937 22.32074219 66.29296875 23.16210938 C66.5039072 28.37228906 67.10111684 31.224673 71 35 C73.07707591 36.89135197 75.22198789 38.66444624 77.390625 40.44921875 C78.18726562 41.21685547 78.18726562 41.21685547 79 42 C79 42.66 79 43.32 79 44 C77.68 43.34 76.36 42.68 75 42 C75 41.34 75 40.68 75 40 C74.071875 39.7525 73.14375 39.505 72.1875 39.25 C68.83541675 37.93545755 67.8122197 37.02036616 66 34 C65.938125 34.721875 65.87625 35.44375 65.8125 36.1875 C64.74007034 39.8997565 62.90242087 41.51221068 60 44 C59.01 44.33 58.02 44.66 57 45 C57 45.66 57 46.32 57 47 C49.97079235 47.02536831 42.94159652 47.04287462 35.91235352 47.05493164 C33.52139851 47.0599584 31.13044657 47.06678075 28.73950195 47.07543945 C25.30158734 47.08757747 21.86371339 47.09324492 18.42578125 47.09765625 C16.82395744 47.10539818 16.82395744 47.10539818 15.18977356 47.11329651 C14.18911362 47.11337204 13.18845367 47.11344757 12.1574707 47.11352539 C11.28032913 47.115746 10.40318756 47.11796661 9.49946594 47.12025452 C6.87579154 46.99402407 4.53211031 46.7057432 2 46 C-1.99884662 40.71580982 -2.15794371 35.70638827 -2.16796875 29.27734375 C-2.17129715 28.53545303 -2.17462555 27.79356232 -2.17805481 27.02919006 C-2.18310559 25.46502297 -2.18546371 23.90084516 -2.18530273 22.33666992 C-2.18749554 19.94236644 -2.20568757 17.5485193 -2.22460938 15.15429688 C-2.22754241 13.63281407 -2.22952781 12.11132909 -2.23046875 10.58984375 C-2.23765427 9.87416733 -2.24483978 9.15849091 -2.25224304 8.42112732 C-2.23518951 4.72084533 -2.10947211 3.16420817 0 0 Z " fill="#496294" transform="translate(30,41)"/>
<path d="M0 0 C0.33 0 0.66 0 1 0 C1.05104406 7.6130891 1.08587707 15.22613344 1.10986328 22.83935547 C1.11987133 25.42498423 1.1334819 28.01060181 1.15087891 30.59619141 C1.17535674 34.3297808 1.18653544 38.06321951 1.1953125 41.796875 C1.20563507 42.93799744 1.21595764 44.07911987 1.22659302 45.25482178 C1.22827157 57.48027327 -0.10652714 68.65979071 -7 79 C-7.66 79 -8.32 79 -9 79 C-9 79.66 -9 80.32 -9 81 C-10.50390625 82.21875 -10.50390625 82.21875 -12.5625 83.5 C-13.22378906 83.9228125 -13.88507813 84.345625 -14.56640625 84.78125 C-20.11910017 87.56205338 -25.44659346 88.25450042 -31.59667969 88.29052734 C-32.32130402 88.29724457 -33.04592834 88.30396179 -33.79251099 88.31088257 C-36.169037 88.32975462 -38.54527888 88.33378149 -40.921875 88.3359375 C-42.58945833 88.3423738 -44.25704055 88.34910276 -45.92462158 88.35610962 C-49.41461807 88.36805606 -52.90451578 88.37179325 -56.39453125 88.37060547 C-60.84052912 88.37040263 -65.28588527 88.39767988 -69.73173141 88.43214989 C-73.17554565 88.4545205 -76.61920805 88.45843989 -80.06308746 88.45738602 C-81.70075945 88.45972767 -83.33843654 88.46846914 -84.97603607 88.48405075 C-95.69221507 88.57645688 -105.92491515 88.30162586 -114.6875 81.3125 C-115.8321875 80.1678125 -115.8321875 80.1678125 -117 79 C-117 78.67 -117 78.34 -117 78 C-110.375 78.75 -110.375 78.75 -107 81 C-107 81.66 -107 82.32 -107 83 C-106.24074219 83.13277344 -105.48148438 83.26554687 -104.69921875 83.40234375 C-103.70535156 83.57894531 -102.71148437 83.75554687 -101.6875 83.9375 C-100.70136719 84.11152344 -99.71523437 84.28554687 -98.69921875 84.46484375 C-96 85 -96 85 -93 86 C-91.63205606 86.08101946 -90.26044196 86.10757177 -88.89013672 86.09765625 C-88.06432098 86.09435303 -87.23850525 86.0910498 -86.38766479 86.08764648 C-85.49403229 86.07934814 -84.60039978 86.0710498 -83.6796875 86.0625 C-82.74762482 86.05871338 -81.81556213 86.05492676 -80.85525513 86.05102539 C-76.87561525 86.03477401 -72.89607908 86.00707795 -68.91650391 85.97949219 C-56.56542155 85.90122953 -44.31961739 86.07535792 -32 87 C-32 86.34 -32 85.68 -32 85 C-31.33613281 84.95101562 -30.67226562 84.90203125 -29.98828125 84.8515625 C-23.21201328 84.43512299 -23.21201328 84.43512299 -17 82 C-16.505 81.154375 -16.01 80.30875 -15.5 79.4375 C-15.005 78.633125 -14.51 77.82875 -14 77 C-12.34178227 76.62690101 -10.67422986 76.29299023 -9 76 C-6.61893266 73.53389454 -5.59953862 71.35741626 -5 68 C-4.34 68 -3.68 68 -3 68 C-3.16048828 66.71416016 -3.16048828 66.71416016 -3.32421875 65.40234375 C-3.44410156 64.25894531 -3.56398438 63.11554688 -3.6875 61.9375 C-3.81511719 60.81214844 -3.94273437 59.68679687 -4.07421875 58.52734375 C-4 55 -4 55 -2.52734375 51.97851562 C-0.32975205 47.06445471 -0.52171598 42.12109367 -0.48828125 36.81640625 C-0.46135445 35.23314796 -0.46135445 35.23314796 -0.43388367 33.61790466 C-0.37995641 30.26614302 -0.34594083 26.91452238 -0.3125 23.5625 C-0.27931147 21.2818815 -0.2448204 19.00128156 -0.20898438 16.72070312 C-0.12424012 11.14726189 -0.05581611 5.573802 0 0 Z " fill="#092C56" transform="translate(135,36)"/>
<path d="M0 0 C9.52749036 -0.04642036 19.05494155 -0.08191842 28.58252048 -0.10362434 C33.00695871 -0.11404414 37.43131932 -0.1281703 41.85571289 -0.15087891 C46.12861324 -0.17267174 50.40143913 -0.18458219 54.67439079 -0.18975449 C56.30140288 -0.1934387 57.92841108 -0.20063299 59.55539131 -0.21146011 C61.84113372 -0.22606079 64.12657169 -0.22797439 66.41235352 -0.22705078 C67.71141129 -0.231492 69.01046906 -0.23593323 70.34889221 -0.24050903 C74.16945047 0.01116219 77.36745575 0.81757339 81 2 C82.155 2.37125 83.31 2.7425 84.5 3.125 C91.33140624 6.78468191 95.65458472 12.68782295 98 20 C98.1875 22.9375 98.1875 22.9375 98 25 C95.44971017 23.72485508 95.06918289 22.59658703 94 20 C94 19.01 94 18.02 94 17 C93.34 17 92.68 17 92 17 C91.505 15.02 91.505 15.02 91 13 C89.35 12.67 87.7 12.34 86 12 C85.01 9.03 85.01 9.03 84 6 C82.948125 5.855625 81.89625 5.71125 80.8125 5.5625 C78.67777506 5.24754058 76.5451527 4.90015547 74.4375 4.4375 C71.58074766 3.92474958 68.89834729 3.93833304 66 4 C64 4 62 4 60 4 C60 3.34 60 2.68 60 2 C52.525 2.09227402 45.0503246 2.19958069 37.57568359 2.31738281 C35.03243924 2.35568566 32.48914048 2.3905362 29.94580078 2.421875 C26.29179423 2.46749662 22.63816273 2.52549678 18.984375 2.5859375 C17.27637726 2.60326431 17.27637726 2.60326431 15.53387451 2.62094116 C13.94267792 2.6507457 13.94267792 2.6507457 12.31933594 2.68115234 C11.38667908 2.69447601 10.45402222 2.70779968 9.49310303 2.7215271 C6.88125063 3.01326399 5.30457209 3.80144969 3 5 C0.25 4.625 0.25 4.625 -2 4 C-1.34 2.68 -0.68 1.36 0 0 Z " fill="#7399BB" transform="translate(36,3)"/>
<path d="M0 0 C1.56716218 3.13432437 1.05791868 6.45990671 0.9921875 9.89453125 C0.97466448 11.505853 0.95775684 13.11718155 0.94140625 14.72851562 C0.91048974 17.26980326 0.87503193 19.81075224 0.82861328 22.35180664 C0.78615608 24.80359056 0.76279627 27.25497919 0.7421875 29.70703125 C0.72356659 30.46240677 0.70494568 31.21778229 0.6857605 31.99604797 C0.66403863 36.48541411 0.98490367 39.56898592 4 43 C7.33586975 43.89133467 10.53212065 44.14175421 13.97387695 44.20532227 C15.41480461 44.2352401 15.41480461 44.2352401 16.88484192 44.26576233 C18.42104439 44.29083107 18.42104439 44.29083107 19.98828125 44.31640625 C21.04661667 44.33718735 22.10495209 44.35796844 23.19535828 44.37937927 C26.56767441 44.44463103 29.94006674 44.50364637 33.3125 44.5625 C35.60222134 44.6057084 37.89193505 44.64932343 40.18164062 44.69335938 C45.78768045 44.80028741 51.39379566 44.90209863 57 45 C57 45.66 57 46.32 57 47 C49.97079235 47.02536831 42.94159652 47.04287462 35.91235352 47.05493164 C33.52139851 47.0599584 31.13044657 47.06678075 28.73950195 47.07543945 C25.30158734 47.08757747 21.86371339 47.09324492 18.42578125 47.09765625 C16.82395744 47.10539818 16.82395744 47.10539818 15.18977356 47.11329651 C14.18911362 47.11337204 13.18845367 47.11344757 12.1574707 47.11352539 C11.28032913 47.115746 10.40318756 47.11796661 9.49946594 47.12025452 C6.87579154 46.99402407 4.53211031 46.7057432 2 46 C-1.99884662 40.71580982 -2.15794371 35.70638827 -2.16796875 29.27734375 C-2.17129715 28.53545303 -2.17462555 27.79356232 -2.17805481 27.02919006 C-2.18310559 25.46502297 -2.18546371 23.90084516 -2.18530273 22.33666992 C-2.18749554 19.94236644 -2.20568757 17.5485193 -2.22460938 15.15429688 C-2.22754241 13.63281407 -2.22952781 12.11132909 -2.23046875 10.58984375 C-2.23765427 9.87416733 -2.24483978 9.15849091 -2.25224304 8.42112732 C-2.23518951 4.72084533 -2.10947211 3.16420817 0 0 Z " fill="#265AA8" transform="translate(30,41)"/>
<path d="M0 0 C0.33 0 0.66 0 1 0 C1.01981934 1.11221924 1.03963867 2.22443848 1.06005859 3.37036133 C1.13756967 7.59580841 1.22602782 11.82097407 1.31738281 16.04614258 C1.35508457 17.85630641 1.39002555 19.66653038 1.421875 21.47680664 C1.6330855 33.34749703 2.29876291 45.04598352 3.74786377 56.83309937 C3.9248655 58.35428165 4.07910368 59.87820254 4.2164917 61.4034729 C4.28990784 62.19305389 4.36332397 62.98263489 4.43896484 63.79614258 C4.49933929 64.50619949 4.55971375 65.21625641 4.62191772 65.9478302 C5.04717161 68.25603989 5.87020042 69.95220261 7 72 C8.60725635 75.21451269 8.05748185 78.43612536 8 82 C2.64233927 77.40771937 0.98118696 70.74347705 0 64 C-0.26220409 59.03979548 -0.23395559 54.08631945 -0.1953125 49.12109375 C-0.1915749 47.69906311 -0.18873146 46.27702988 -0.18673706 44.85499573 C-0.17915931 41.14127287 -0.15956239 37.42771046 -0.1373291 33.71405029 C-0.11674326 29.91290455 -0.10770831 26.11173248 -0.09765625 22.31054688 C-0.07630995 14.87362537 -0.04224631 7.4368353 0 0 Z " fill="#1A4986" transform="translate(10,32)"/>
<path d="M0 0 C6.86845739 -0.05079385 13.73686615 -0.08577306 20.60546875 -0.10986328 C22.94109914 -0.11990831 25.276717 -0.13354677 27.61230469 -0.15087891 C30.97333881 -0.17519277 34.33420634 -0.18649827 37.6953125 -0.1953125 C38.73615997 -0.20563507 39.77700745 -0.21595764 40.84939575 -0.22659302 C45.9105957 -0.22737273 50.32843806 -0.2126426 55 2 C56.2421875 4.1640625 56.2421875 4.1640625 56.875 6.625 C57.09929687 7.44226562 57.32359375 8.25953125 57.5546875 9.1015625 C57.70164063 9.72804688 57.84859375 10.35453125 58 11 C58.99 11 59.98 11 61 11 C61.33 10.01 61.66 9.02 62 8 C65.0625 6.8125 65.0625 6.8125 68 6 C68 5.01 68 4.02 68 3 C69.32 3.33 70.64 3.66 72 4 C71.21753906 4.69867188 70.43507813 5.39734375 69.62890625 6.1171875 C68.60662828 7.0362998 67.58450065 7.95557934 66.5625 8.875 C65.7880957 9.56529297 65.7880957 9.56529297 64.99804688 10.26953125 C62.10512063 12.81793085 62.10512063 12.81793085 60 16 C59.34 16 58.68 16 58 16 C57.67 24.25 57.34 32.5 57 41 C56.67 41 56.34 41 56 41 C55.9906543 40.05680908 55.98130859 39.11361816 55.97167969 38.1418457 C55.9275569 34.62824458 55.86589795 31.11584747 55.79248047 27.6027832 C55.7643283 26.08499315 55.7430851 24.56705807 55.72900391 23.04907227 C55.70749277 20.86138979 55.66080772 18.67544035 55.609375 16.48828125 C55.58842773 15.17384033 55.56748047 13.85939941 55.54589844 12.50512695 C54.90812577 8.41009018 54.03123204 6.79784111 51 4 C45.78800296 1.4189791 40.26830119 1.65497667 34.5703125 1.5859375 C33.57998016 1.56657135 32.58964783 1.5472052 31.56930542 1.5272522 C28.4212899 1.46770447 25.27323732 1.4211703 22.125 1.375 C19.98435948 1.3367974 17.84373396 1.29774435 15.703125 1.2578125 C10.4688836 1.16202348 5.2345511 1.07690405 0 1 C0 0.67 0 0.34 0 0 Z " fill="#5688C9" transform="translate(37,37)"/>
<path d="M0 0 C0.33 0 0.66 0 1 0 C1.12394421 4.60805521 1.21449675 9.21513281 1.2746582 13.82446289 C1.29974547 15.39104114 1.33382415 16.95750299 1.37719727 18.52368164 C1.43811226 20.78040309 1.46626499 23.03557294 1.48828125 25.29296875 C1.51408768 25.98899704 1.5398941 26.68502533 1.56648254 27.40214539 C1.56850303 30.93484272 1.03902775 32.93770034 -0.84326172 35.94238281 C-5.49141086 38.97212767 -9.55633007 38.69911894 -14.99609375 38.62890625 C-16.59554588 38.63252419 -16.59554588 38.63252419 -18.22731018 38.63621521 C-20.47913333 38.63523707 -22.73098063 38.62185142 -24.98266602 38.59692383 C-28.42222181 38.56265223 -31.85920267 38.57625909 -35.29882812 38.59570312 C-37.48959423 38.58880344 -39.68035372 38.57912995 -41.87109375 38.56640625 C-42.89625595 38.57136612 -43.92141815 38.57632599 -44.97764587 38.58143616 C-50.95456707 38.48329218 -54.45263711 37.98988801 -59 34 C-61.18702362 31.01106771 -62 29.72055546 -62 26 C-59.61435923 26.57584432 -57.33317216 27.22227595 -55 28 C-53.8125 31.5625 -53.8125 31.5625 -53 35 C-52.01 35 -51.02 35 -50 35 C-50 35.66 -50 36.32 -50 37 C-43.77006827 36.90786195 -37.54053121 36.80057443 -31.31103516 36.68261719 C-29.1906531 36.64427158 -27.07020474 36.60942867 -24.94970703 36.578125 C-21.90633402 36.53259534 -18.86341968 36.47458161 -15.8203125 36.4140625 C-14.39212692 36.39673569 -14.39212692 36.39673569 -12.93508911 36.37905884 C-12.05432709 36.35918915 -11.17356506 36.33931946 -10.26611328 36.31884766 C-9.48889923 36.30552399 -8.71168518 36.29220032 -7.91091919 36.2784729 C-5.7611053 36.15960424 -5.7611053 36.15960424 -4 34 C-3.34 33.67 -2.68 33.34 -2 33 C-0.55202591 26.31630503 -0.66415255 19.37322336 -0.4375 12.5625 C-0.37272461 10.74975586 -0.37272461 10.74975586 -0.30664062 8.90039062 C-0.20110596 5.93369394 -0.09899286 2.96692098 0 0 Z " fill="#E0EBFA" transform="translate(92,46)"/>
<path d="M0 0 C6.93 0 13.86 0 21 0 C21 22.11 21 44.22 21 67 C15.39 67 9.78 67 4 67 C3.93941406 64.89238281 3.87882813 62.78476563 3.81640625 60.61328125 C3.75451301 58.56124657 3.6911685 56.50926143 3.62768555 54.45727539 C3.58450196 53.03642225 3.54281592 51.61552274 3.50268555 50.19458008 C3.44457905 48.1465053 3.38100362 46.09866035 3.31640625 44.05078125 C3.27974854 42.82012939 3.24309082 41.58947754 3.20532227 40.3215332 C3.0860752 37.07782772 3.0860752 37.07782772 2.42163086 34.26635742 C1.83406369 31.10805628 2.83943478 28.93554733 4 26 C4.33 26 4.66 26 5 26 C5 39.2 5 52.4 5 66 C9.95 66 14.9 66 20 66 C20 44.55 20 23.1 20 1 C13.4 1 6.8 1 0 1 C0 0.67 0 0.34 0 0 Z " fill="#CFCECE" transform="translate(210,30)"/>
<path d="M0 0 C-1.88210203 2.54637334 -2.97909374 2.99567816 -6.13671875 3.6484375 C-18.58576149 4.78131298 -30.76550516 5.15424091 -43.2421875 4.25390625 C-46.18197973 4.05527164 -49.05671432 3.94805966 -52 4 C-51.67 3.01 -51.34 2.02 -51 1 C-16.71711201 -0.19388403 -16.71711201 -0.19388403 0 0 Z " fill="#2D77E2" transform="translate(90,89)"/>
<path d="M0 0 C6.625 0.75 6.625 0.75 10 3 C10 3.66 10 4.32 10 5 C11.13888672 5.19916016 11.13888672 5.19916016 12.30078125 5.40234375 C13.29464844 5.57894531 14.28851563 5.75554687 15.3125 5.9375 C16.79169922 6.19853516 16.79169922 6.19853516 18.30078125 6.46484375 C21 7 21 7 24 8 C25.45781722 8.08630926 26.91927474 8.11770981 28.37963867 8.11352539 C29.26032516 8.11344986 30.14101166 8.11337433 31.04838562 8.11329651 C32.46882927 8.10555458 32.46882927 8.10555458 33.91796875 8.09765625 C34.89034988 8.0962413 35.86273102 8.09482635 36.86457825 8.09336853 C39.97225004 8.08776817 43.07984996 8.07521562 46.1875 8.0625 C48.29361875 8.05748505 50.39973863 8.05292213 52.50585938 8.04882812 C57.67060064 8.03779862 62.83528813 8.02053375 68 8 C68.495 8.99 68.495 8.99 69 10 C61.7959412 10.10205147 54.59207124 10.17173735 47.38745117 10.21972656 C44.9404402 10.2397483 42.49347651 10.26697398 40.04663086 10.30175781 C36.51404093 10.35069163 32.98208771 10.37306416 29.44921875 10.390625 C28.36855637 10.41127014 27.28789398 10.43191528 26.17448425 10.45318604 C17.48171133 10.45571072 9.23473836 8.89690077 2.3125 3.3125 C1.549375 2.549375 0.78625 1.78625 0 1 C0 0.67 0 0.34 0 0 Z " fill="#1065CD" transform="translate(18,114)"/>
<path d="M0 0 C0.33 0 0.66 0 1 0 C3.25673655 8.31905173 3.34014286 16.6194263 3.31567383 25.17089844 C3.31246833 27.52323912 3.33620623 29.87437254 3.36132812 32.2265625 C3.36359721 33.72395676 3.36430644 35.22135438 3.36328125 36.71875 C3.372491 37.42076538 3.38170074 38.12278076 3.39118958 38.84606934 C3.37231445 40.81054688 3.37231445 40.81054688 3 44 C0 46 0 46 -2.6875 45.625 C-3.450625 45.41875 -4.21375 45.2125 -5 45 C-4.67 44.34 -4.34 43.68 -4 43 C-3.01 43 -2.02 43 -1 43 C-0.67 28.81 -0.34 14.62 0 0 Z " fill="#3A74C8" transform="translate(114,40)"/>
<path d="M0 0 C0.66 0.33 1.32 0.66 2 1 C1.98428955 1.98282959 1.9685791 2.96565918 1.95239258 3.97827148 C1.89764417 7.66275676 1.86348859 11.34720689 1.83520508 15.03198242 C1.82021987 16.61960926 1.79982454 18.20719543 1.77368164 19.79467773 C1.57280851 32.17704902 1.57280851 32.17704902 5 44 C5.99 44 6.98 44 8 44 C8 44.66 8 45.32 8 46 C6.68 45.67 5.36 45.34 4 45 C4 44.34 4 43.68 4 43 C3.01 43 2.02 43 1 43 C0.67 41.68 0.34 40.36 0 39 C-0.99 39.495 -0.99 39.495 -2 40 C-2.02465504 35.60343827 -2.04283842 31.2069128 -2.05493164 26.81030273 C-2.05997121 25.31355082 -2.06680287 23.81680384 -2.07543945 22.32006836 C-2.08752159 20.17300193 -2.09323191 18.02600038 -2.09765625 15.87890625 C-2.10289307 14.5854126 -2.10812988 13.29191895 -2.11352539 11.95922852 C-2 9 -2 9 -1 8 C-0.76924918 6.65252916 -0.58846937 5.29622435 -0.4375 3.9375 C-0.293125 2.638125 -0.14875 1.33875 0 0 Z " fill="#3A81E7" transform="translate(27,43)"/>
<path d="M0 0 C5.59796316 -0.55979632 9.45857736 0.87010061 14 4 C19.3593509 8.92163499 23.71023574 14.46035998 24.1875 21.9375 C24.0946875 22.9584375 24.0946875 22.9584375 24 24 C21.44971017 22.72485508 21.06918289 21.59658703 20 19 C20 18.01 20 17.02 20 16 C19.34 16 18.68 16 18 16 C17.67 14.68 17.34 13.36 17 12 C15.35 11.67 13.7 11.34 12 11 C11.6596875 9.576875 11.6596875 9.576875 11.3125 8.125 C10.30916286 4.80676612 10.30916286 4.80676612 7.375 3.625 C6.59125 3.41875 5.8075 3.2125 5 3 C5 2.34 5 1.68 5 1 C3.35 1 1.7 1 0 1 C0 0.67 0 0.34 0 0 Z " fill="#75ADE9" transform="translate(110,4)"/>
<path d="M0 0 C1.56369894 3.12739788 1.03702578 6.43405346 0.95703125 9.859375 C0.93463182 11.46613334 0.91317764 13.07290508 0.89257812 14.6796875 C0.85556479 17.21228239 0.81263635 19.74419372 0.75317383 22.27636719 C0.69844411 24.72080192 0.66951914 27.16447841 0.64453125 29.609375 C0.62074905 30.35958923 0.59696686 31.10980347 0.57246399 31.88275146 C0.54650771 37.13191854 1.86035578 39.87168371 5 44 C5 44.66 5 45.32 5 46 C4.01 46 3.02 46 2 46 C-1.91032247 40.58570734 -2.15781848 35.78669941 -2.16796875 29.27734375 C-2.17129715 28.53545303 -2.17462555 27.79356232 -2.17805481 27.02919006 C-2.18310559 25.46502297 -2.18546371 23.90084516 -2.18530273 22.33666992 C-2.18749554 19.94236644 -2.20568757 17.5485193 -2.22460938 15.15429688 C-2.22754241 13.63281407 -2.22952781 12.11132909 -2.23046875 10.58984375 C-2.23765427 9.87416733 -2.24483978 9.15849091 -2.25224304 8.42112732 C-2.23518951 4.72084533 -2.10947211 3.16420817 0 0 Z " fill="#4C75AD" transform="translate(30,41)"/>
<path d="M0 0 C-0.495 0.53625 -0.99 1.0725 -1.5 1.625 C-3.37489544 4.59358445 -3.23501425 6.55312427 -3 10 C-3.66 10 -4.32 10 -5 10 C-4.67 10.99 -4.34 11.98 -4 13 C-4.30700133 15.00421089 -4.64485761 17.00375728 -5 19 C-5.14285463 21.45383821 -5.24533701 23.91022218 -5.31640625 26.3671875 C-5.33718735 27.04677521 -5.35796844 27.72636292 -5.37937927 28.42654419 C-5.4442363 30.57593666 -5.50345941 32.7254407 -5.5625 34.875 C-5.60574612 36.3411569 -5.64936225 37.80730294 -5.69335938 39.2734375 C-5.79985104 42.84884275 -5.90129409 46.42437037 -6 50 C-6.33 50 -6.66 50 -7 50 C-7.02538248 43.68287007 -7.04288057 37.36575332 -7.05493164 31.04858398 C-7.05995629 28.90014148 -7.06677708 26.7517024 -7.07543945 24.60327148 C-7.08758678 21.5128495 -7.09324705 18.42247278 -7.09765625 15.33203125 C-7.10281754 14.37351761 -7.10797882 13.41500397 -7.11329651 12.42744446 C-7.11337204 11.52688828 -7.11344757 10.62633209 -7.11352539 9.69848633 C-7.11685631 8.51601067 -7.11685631 8.51601067 -7.12025452 7.30964661 C-6.98781899 4.76604766 -6.6697179 2.45909433 -6 0 C-3.50907189 -1.24546405 -2.58919267 -0.7767578 0 0 Z " fill="#5C92D3" transform="translate(18,22)"/>
<path d="M0 0 C0.33 0 0.66 0 1 0 C1.02578125 1.24136719 1.0515625 2.48273437 1.078125 3.76171875 C1.13442082 5.40368028 1.19176783 7.045606 1.25 8.6875 C1.26417969 9.50412109 1.27835937 10.32074219 1.29296875 11.16210938 C1.5039072 16.37228906 2.10111684 19.224673 6 23 C8.07707591 24.89135197 10.22198789 26.66444624 12.390625 28.44921875 C13.18726562 29.21685547 13.18726562 29.21685547 14 30 C14 30.66 14 31.32 14 32 C12.68 31.34 11.36 30.68 10 30 C10 29.34 10 28.68 10 28 C9.071875 27.7525 8.14375 27.505 7.1875 27.25 C3.83541675 25.93545755 2.8122197 25.02036616 1 22 C0.34 22.66 -0.32 23.32 -1 24 C-1.02893932 20.37501666 -1.04677792 16.75006287 -1.0625 13.125 C-1.07087891 12.09246094 -1.07925781 11.05992188 -1.08789062 9.99609375 C-1.09111328 9.00996094 -1.09433594 8.02382813 -1.09765625 7.0078125 C-1.10289307 6.09660645 -1.10812988 5.18540039 -1.11352539 4.24658203 C-1 2 -1 2 0 0 Z " fill="#325081" transform="translate(95,53)"/>
<path d="M0 0 C0 0.66 0 1.32 0 2 C-1.423125 2.6496875 -1.423125 2.6496875 -2.875 3.3125 C-6.20041937 4.79302201 -6.20041937 4.79302201 -8 8 C-8.804375 8.474375 -9.60875 8.94875 -10.4375 9.4375 C-13.06997297 11.04266645 -14.2209646 12.54323683 -16 15 C-16.66 15 -17.32 15 -18 15 C-18.08744538 11.50218476 -17.43316665 9.49959766 -15.140625 6.85546875 C-10.19265108 2.24787559 -6.86339358 0 0 0 Z " fill="#7EB5F1" transform="translate(33,5)"/>
<path d="M0 0 C3.61673351 0.41372228 5.95397741 1.15421411 8.9921875 3.1796875 C14.32687179 3.56433645 14.32687179 3.56433645 18.9921875 1.1796875 C20.3121875 1.1796875 21.6321875 1.1796875 22.9921875 1.1796875 C22.9921875 2.4996875 22.9921875 3.8196875 22.9921875 5.1796875 C22.4353125 4.9528125 21.8784375 4.7259375 21.3046875 4.4921875 C18.85919275 3.89670843 18.85919275 3.89670843 16.7421875 5.7421875 C13.67148277 7.34732861 12.99004433 7.27965554 9.7421875 6.5546875 C8.5046875 6.1009375 7.2671875 5.6471875 5.9921875 5.1796875 C5.6621875 4.1896875 5.3321875 3.1996875 4.9921875 2.1796875 C1.58906012 3.23843824 -1.02134481 4.18870904 -4.0078125 6.1796875 C-4.9978125 5.8496875 -5.9878125 5.5196875 -7.0078125 5.1796875 C-3.18779413 0.28528897 -3.18779413 0.28528897 0 0 Z " fill="#2F7BE6" transform="translate(97.0078125,82.8203125)"/>
<path d="M0 0 C6.625 0.75 6.625 0.75 10 3 C10 3.66 10 4.32 10 5 C10.75925781 5.12117188 11.51851562 5.24234375 12.30078125 5.3671875 C13.29464844 5.53476563 14.28851563 5.70234375 15.3125 5.875 C16.29863281 6.03742188 17.28476562 6.19984375 18.30078125 6.3671875 C21 7 21 7 24 9 C16.59471072 9.56721365 10.52198647 8.72514921 4 5 C1.375 2.25 1.375 2.25 0 0 Z " fill="#1864C2" transform="translate(18,114)"/>
<path d="M0 0 C0.33 0 0.66 0 1 0 C1 13.2 1 26.4 1 40 C6.28 40 11.56 40 17 40 C17 40.33 17 40.66 17 41 C11.39 41 5.78 41 0 41 C-0.06058594 38.89238281 -0.12117187 36.78476563 -0.18359375 34.61328125 C-0.24548699 32.56124657 -0.3088315 30.50926143 -0.37231445 28.45727539 C-0.41549804 27.03642225 -0.45718408 25.61552274 -0.49731445 24.19458008 C-0.55542095 22.1465053 -0.61899638 20.09866035 -0.68359375 18.05078125 C-0.72025146 16.82012939 -0.75690918 15.58947754 -0.79467773 14.3215332 C-0.9139248 11.07782772 -0.9139248 11.07782772 -1.57836914 8.26635742 C-2.16593631 5.10805628 -1.16056522 2.93554733 0 0 Z " fill="#BFBDBD" transform="translate(214,56)"/>
<path d="M0 0 C0.33 0 0.66 0 1 0 C1 13.86 1 27.72 1 42 C-0.98 42.495 -0.98 42.495 -3 43 C-4.75 41.5625 -4.75 41.5625 -6 40 C-4.35 40 -2.7 40 -1 40 C-0.67 26.8 -0.34 13.6 0 0 Z " fill="#D7E9FD" transform="translate(113,41)"/>
<path d="M0 0 C0.33 0 0.66 0 1 0 C1 14.85 1 29.7 1 45 C-1.475 45.495 -1.475 45.495 -4 46 C-4 45.01 -4 44.02 -4 43 C-3.01 43 -2.02 43 -1 43 C-0.67 28.81 -0.34 14.62 0 0 Z " fill="#5077B1" transform="translate(114,40)"/>
<path d="M0 0 C3.3 0 6.6 0 10 0 C10.33 1.32 10.66 2.64 11 4 C10.360625 4.28875 9.72125 4.5775 9.0625 4.875 C6.84793921 5.82823451 6.84793921 5.82823451 6 8 C5.01 8 4.02 8 3 8 C0 2.25 0 2.25 0 0 Z " fill="#5398F3" transform="translate(92,40)"/>
<path d="M0 0 C2.3431213 0.25561323 4.67843403 0.59270772 7 1 C7.33 1.66 7.66 2.32 8 3 C4.7129243 6.81300782 1.60272162 8.22972246 -3 10 C-2.625 8.0625 -2.625 8.0625 -2 6 C-1.34 5.67 -0.68 5.34 0 5 C0 3.35 0 1.7 0 0 Z " fill="#5BA0FA" transform="translate(32,32)"/>
<path d="M0 0 C0.33 0 0.66 0 1 0 C1.01458252 0.71019287 1.02916504 1.42038574 1.04418945 2.15209961 C1.11931625 5.41440778 1.21576133 8.67576398 1.3125 11.9375 C1.33505859 13.05447266 1.35761719 14.17144531 1.38085938 15.32226562 C1.60079251 22.1401927 2.48779258 27.64876248 5 34 C5.99 34 6.98 34 8 34 C8 34.66 8 35.32 8 36 C6.68 35.67 5.36 35.34 4 35 C4 34.34 4 33.68 4 33 C3.01 33 2.02 33 1 33 C0.19604975 28.77717482 -0.11811363 24.80386236 -0.09765625 20.5078125 C-0.09443359 19.30898437 -0.09121094 18.11015625 -0.08789062 16.875 C-0.07951172 15.6375 -0.07113281 14.4 -0.0625 13.125 C-0.05798828 11.86429688 -0.05347656 10.60359375 -0.04882812 9.3046875 C-0.0370796 6.20307614 -0.02065167 3.10156275 0 0 Z " fill="#3477D8" transform="translate(27,53)"/>
<path d="M0 0 C3 1 3 1 4.1796875 2.671875 C5.22405287 5.63588339 5.19316459 8.11442868 5.125 11.25 C5.10695312 12.32765625 5.08890625 13.4053125 5.0703125 14.515625 C5.04710937 15.33546875 5.02390625 16.1553125 5 17 C2.67051464 14.67051464 2.77520686 14.14278968 2.625 11 C2.46767205 8.88219759 2.46767205 8.88219759 2 7 C0.07935207 5.4100567 0.07935207 5.4100567 -2 5 C-1.34 4.01 -0.68 3.02 0 2 C0 1.34 0 0.68 0 0 Z " fill="#66A8F4" transform="translate(129,23)"/>
<path d="M0 0 C0.33 0 0.66 0 1 0 C1.02714735 2.22909871 1.04646254 4.45829367 1.0625 6.6875 C1.07410156 7.92886719 1.08570313 9.17023438 1.09765625 10.44921875 C1.01478673 13.46235454 0.70839449 16.08275339 0 19 C-0.66 19 -1.32 19 -2 19 C-2.98262143 11.79016324 -3.6644984 6.44951718 0 0 Z " fill="#2F72C8" transform="translate(134,84)"/>
<path d="M0 0 C0.99 0.99 1.98 1.98 3 3 C2.70727539 5.3425293 2.70727539 5.3425293 2 8 C1.85917098 9.83747541 1.75560602 11.67807451 1.68359375 13.51953125 C1.64169922 14.54111328 1.59980469 15.56269531 1.55664062 16.61523438 C1.51732422 17.67033203 1.47800781 18.72542969 1.4375 19.8125 C1.39431641 20.88693359 1.35113281 21.96136719 1.30664062 23.06835938 C1.20089017 25.71212082 1.09879767 28.3559711 1 31 C0.67 31 0.34 31 0 31 C0 20.77 0 10.54 0 0 Z " fill="#5571A7" transform="translate(93,47)"/>
<path d="M0 0 C2 1 2 1 2.6328125 2.84765625 C2.79523437 3.57855469 2.95765625 4.30945313 3.125 5.0625 C3.29257812 5.79597656 3.46015625 6.52945313 3.6328125 7.28515625 C3.75398438 7.85105469 3.87515625 8.41695312 4 9 C2.35 9.33 0.7 9.66 -1 10 C-2.38125018 7.23749964 -2.19079306 5.05268901 -2 2 C-1.34 1.34 -0.68 0.68 0 0 Z " fill="#1D7AF5" transform="translate(19,104)"/>
<path d="M0 0 C5.28122466 0.08657745 5.28122466 0.08657745 8 1 C10.97012972 5.88634244 12.42875871 11.18244279 11.5625 16.875 C11.376875 17.57625 11.19125 18.2775 11 19 C10.67 19 10.34 19 10 19 C9.89042969 18.09636719 9.78085938 17.19273438 9.66796875 16.26171875 C9.50941406 15.08222656 9.35085937 13.90273438 9.1875 12.6875 C9.03667969 11.51574219 8.88585937 10.34398437 8.73046875 9.13671875 C7.99445318 5.97618132 7.62510948 4.81738348 5 3 C1.89160979 2.2730774 1.89160979 2.2730774 -1 2 C-0.67 1.34 -0.34 0.68 0 0 Z " fill="#5295EC" transform="translate(108,38)"/>
<path d="M0 0 C0.33 0.66 0.66 1.32 1 2 C-0.38542316 5.62848922 -1.84351662 8.76527494 -4 12 C-4.66 12 -5.32 12 -6 12 C-6 12.66 -6 13.32 -6 14 C-6.66 14 -7.32 14 -8 14 C-8 13.01 -8 12.02 -8 11 C-8.66 10.67 -9.32 10.34 -10 10 C-9.1028125 9.87625 -9.1028125 9.87625 -8.1875 9.75 C-5.33068885 8.77052189 -4.53778999 7.56298332 -3 5 C-2.65772583 3.66893378 -2.32248257 2.33599921 -2 1 C-1.34 0.67 -0.68 0.34 0 0 Z " fill="#195CAC" transform="translate(132,103)"/>
<path d="M0 0 C3 1.375 3 1.375 6 4 C6.5412406 7.3854069 6.35042185 10.59961015 6 14 C2.42627712 10.61647526 0.14002494 7.14704902 -0.1875 2.125 C-0.125625 1.42375 -0.06375 0.7225 0 0 Z " fill="#1F5DAF" transform="translate(12,100)"/>
<path d="M0 0 C3.33524284 2.69995849 4.56351308 6.03255995 6 10 C6.1875 12.9375 6.1875 12.9375 6 15 C3.44971017 13.72485508 3.06918289 12.59658703 2 10 C2 9.01 2 8.02 2 7 C1.34 7 0.68 7 0 7 C0 4.69 0 2.38 0 0 Z " fill="#6287B5" transform="translate(128,13)"/>
<path d="M0 0 C0.99 0.33 1.98 0.66 3 1 C2.6875 3.375 2.6875 3.375 2 6 C-1.6441774 8.4294516 -3.71241272 8.16179575 -8 8 C-7.67 7.34 -7.34 6.68 -7 6 C-6.38125 5.896875 -5.7625 5.79375 -5.125 5.6875 C-2.05605613 4.6946064 -1.42456635 2.77790438 0 0 Z " fill="#186AD1" transform="translate(121,113)"/>
<path d="M0 0 C0.721875 0.78375 1.44375 1.5675 2.1875 2.375 C4.83299041 4.84412438 6.60373611 5.93260278 10 7 C9.67 7.99 9.34 8.98 9 10 C8.484375 9.67 7.96875 9.34 7.4375 9 C4.21973488 7.67989123 1.4429472 7.86757895 -2 8 C-1.67 7.4225 -1.34 6.845 -1 6.25 C0.27075898 3.80116138 0.27075898 3.80116138 0 0 Z " fill="#2A61B1" transform="translate(95,74)"/>
<path d="M0 0 C0.66 0.33 1.32 0.66 2 1 C1.01 8.59 0.02 16.18 -1 24 C-1.33 24 -1.66 24 -2 24 C-2.02685095 21.52076199 -2.04676547 19.0418116 -2.0625 16.5625 C-2.07506836 15.50192383 -2.07506836 15.50192383 -2.08789062 14.41992188 C-2.09653588 12.61306441 -2.05220011 10.80612397 -2 9 C-1.67 8.67 -1.34 8.34 -1 8 C-0.76924918 6.65252916 -0.58846937 5.29622435 -0.4375 3.9375 C-0.293125 2.638125 -0.14875 1.33875 0 0 Z " fill="#468AE9" transform="translate(27,43)"/>
<path d="M0 0 C0.99 0.33 1.98 0.66 3 1 C2.52433594 2.27230469 2.52433594 2.27230469 2.0390625 3.5703125 C0.97128768 7.09477225 0.59958921 10.20670957 0.375 13.875 C0.30023438 15.02742188 0.22546875 16.17984375 0.1484375 17.3671875 C0.07496094 18.67042969 0.07496094 18.67042969 0 20 C-0.33 20 -0.66 20 -1 20 C-1.02888514 16.85418577 -1.04675923 13.70840531 -1.0625 10.5625 C-1.07087891 9.66466797 -1.07925781 8.76683594 -1.08789062 7.84179688 C-1.09111328 6.98779297 -1.09433594 6.13378906 -1.09765625 5.25390625 C-1.10551147 4.06776733 -1.10551147 4.06776733 -1.11352539 2.85766602 C-1 1 -1 1 0 0 Z " fill="#B7B7B7" transform="translate(332,50)"/>
<path d="M0 0 C7.42857143 1 7.42857143 1 11 2 C11.33 3.65 11.66 5.3 12 7 C11.01 7.495 11.01 7.495 10 8 C9.649375 7.401875 9.29875 6.80375 8.9375 6.1875 C6.28731217 3.19535245 3.72226816 2.40462949 0 1 C0 0.67 0 0.34 0 0 Z " fill="#6196DB" transform="translate(81,37)"/>
<path d="M0 0 C1.27617188 0.02320313 2.55234375 0.04640625 3.8671875 0.0703125 C5.78917969 0.09738281 5.78917969 0.09738281 7.75 0.125 C9.23113281 0.15980469 9.23113281 0.15980469 10.7421875 0.1953125 C7.4900735 2.3633885 5.55644702 2.66131617 1.7421875 3.1953125 C0.8346875 3.4221875 -0.0728125 3.6490625 -1.0078125 3.8828125 C-1.7503125 3.9859375 -2.4928125 4.0890625 -3.2578125 4.1953125 C-3.9178125 3.5353125 -4.5778125 2.8753125 -5.2578125 2.1953125 C-3.2578125 0.1953125 -3.2578125 0.1953125 0 0 Z " fill="#82BBF4" transform="translate(39.2578125,3.8046875)"/>
<path d="M0 0 C0.66 0.66 1.32 1.32 2 2 C-5 9 -5 9 -7.1640625 9.1953125 C-8.38222656 9.16050781 -8.38222656 9.16050781 -9.625 9.125 C-10.44226563 9.10695313 -11.25953125 9.08890625 -12.1015625 9.0703125 C-12.72804688 9.04710938 -13.35453125 9.02390625 -14 9 C-14 8.67 -14 8.34 -14 8 C-12.4221875 7.9071875 -12.4221875 7.9071875 -10.8125 7.8125 C-6.32495595 6.85613815 -4.92925366 5.43141143 -2 2 C-1.34 1.34 -0.68 0.68 0 0 Z " fill="#325896" transform="translate(94,77)"/>
<path d="M0 0 C0.33 0 0.66 0 1 0 C1.04898438 1.03640625 1.09796875 2.0728125 1.1484375 3.140625 C1.22349597 4.51044208 1.29904247 5.88023248 1.375 7.25 C1.4059375 7.93191406 1.436875 8.61382812 1.46875 9.31640625 C1.68768785 13.07483935 2.25856448 15.69884396 4 19 C3.67 19.99 3.34 20.98 3 22 C1.07136286 20.15741754 0.07990406 18.65121023 -0.24755859 15.98242188 C-0.29505495 13.56572541 -0.26111304 11.16601788 -0.1875 8.75 C-0.17396484 7.90953125 -0.16042969 7.0690625 -0.14648438 6.203125 C-0.11123464 4.13514062 -0.0574302 2.06748729 0 0 Z " fill="#DAEAFC" transform="translate(96,53)"/>
<path d="M0 0 C5.49579218 -0.54957922 9.46460996 1.03413634 14 4 C14.33 4.66 14.66 5.32 15 6 C13.51793505 5.745504 12.03931385 5.47088238 10.5625 5.1875 C9.73878906 5.03667969 8.91507813 4.88585937 8.06640625 4.73046875 C7.38449219 4.48941406 6.70257813 4.24835937 6 4 C5.67 3.01 5.34 2.02 5 1 C3.35 1 1.7 1 0 1 C0 0.67 0 0.34 0 0 Z " fill="#6184A7" transform="translate(110,4)"/>
<path d="M0 0 C1.485 0.99 1.485 0.99 3 2 C3.99 2 4.98 2 6 2 C8.6875 4.375 8.6875 4.375 11 7 C11 7.66 11 8.32 11 9 C9.68 8.34 8.36 7.68 7 7 C7 6.34 7 5.68 7 5 C5.5459375 4.5978125 5.5459375 4.5978125 4.0625 4.1875 C3.051875 3.795625 2.04125 3.40375 1 3 C0.67 2.01 0.34 1.02 0 0 Z " fill="#365B92" transform="translate(98,76)"/>
<path d="M0 0 C0.66 0 1.32 0 2 0 C2.33 0.66 2.66 1.32 3 2 C4.32 1.67 5.64 1.34 7 1 C7.33 1.66 7.66 2.32 8 3 C7.34 3 6.68 3 6 3 C5.67 4.32 5.34 5.64 5 7 C3.02 5.68 1.04 4.36 -1 3 C-0.67 2.01 -0.34 1.02 0 0 Z " fill="#E5E9F5" transform="translate(102,74)"/>
<path d="M0 0 C0.33 0 0.66 0 1 0 C1 4.62 1 9.24 1 14 C-1.01275953 10.9808607 -1.67024547 9.54486124 -2 6 C-1.0625 2.6875 -1.0625 2.6875 0 0 Z " fill="#8F8C8B" transform="translate(214,56)"/>
<path d="M0 0 C1 3 1 3 0.1015625 4.859375 C-0.26195312 5.56578125 -0.62546875 6.2721875 -1 7 C-1.45064632 9.58532701 -1.45064632 9.58532701 -1.625 12.25 C-1.69976562 13.14203125 -1.77453125 14.0340625 -1.8515625 14.953125 C-1.90054687 15.62859375 -1.94953125 16.3040625 -2 17 C-2.33 17 -2.66 17 -3 17 C-3.08126087 14.91731407 -3.13930839 12.83371342 -3.1875 10.75 C-3.22230469 9.58984375 -3.25710938 8.4296875 -3.29296875 7.234375 C-2.97982934 3.77731593 -2.34290892 2.48434437 0 0 Z " fill="#C5C5C5" transform="translate(389,79)"/>
<path d="M0 0 C4.29 0 8.58 0 13 0 C13.33 0.99 13.66 1.98 14 3 C13.32453125 2.9278125 12.6490625 2.855625 11.953125 2.78125 C11.06109375 2.6884375 10.1690625 2.595625 9.25 2.5 C7.92742187 2.36078125 7.92742187 2.36078125 6.578125 2.21875 C3.76695165 1.94363687 3.76695165 1.94363687 0 2 C0 1.34 0 0.68 0 0 Z " fill="#7DB6F2" transform="translate(102,5)"/>
<path d="M0 0 C3.18772993 2.12515329 4.24920753 3.66515721 6 7 C6 7.66 6 8.32 6 9 C5.01 9 4.02 9 3 9 C0.50022457 5.66696609 0 4.26696398 0 0 Z " fill="#2D69C1" transform="translate(29,78)"/>
<path d="M0 0 C1.17487036 0.75827092 2.33972592 1.53207755 3.5 2.3125 C4.47453125 2.95638672 4.47453125 2.95638672 5.46875 3.61328125 C5.9740625 4.07089844 6.479375 4.52851562 7 5 C7 5.99 7 6.98 7 8 C5.1875 7.8125 5.1875 7.8125 3 7 C0 2.82142857 0 2.82142857 0 0 Z " fill="#335893" transform="translate(30,77)"/>
<path d="M0 0 C0.66 1.32 1.32 2.64 2 4 C0.625 6 0.625 6 -1 8 C-1.66 8 -2.32 8 -3 8 C-2.25 2.25 -2.25 2.25 0 0 Z " fill="#6089B7" transform="translate(18,12)"/>
<path d="M0 0 C0.33 0 0.66 0 1 0 C1 2.64 1 5.28 1 8 C0.01 7.67 -0.98 7.34 -2 7 C-2.125 4.625 -2.125 4.625 -2 2 C-1.34 1.34 -0.68 0.68 0 0 Z " fill="#217DF5" transform="translate(131,96)"/>
<path d="M0 0 C1.32 0 2.64 0 4 0 C4.33 2.31 4.66 4.62 5 7 C3.0625 6.3125 3.0625 6.3125 1 5 C0.25 2.375 0.25 2.375 0 0 Z " fill="#EAE9EE" transform="translate(33,74)"/>
<path d="M0 0 C-2.35277269 2.72426311 -4.62496331 3.8141763 -8 5 C-7.625 3.0625 -7.625 3.0625 -7 1 C-4.53721199 -0.231394 -2.7204945 -0.07159196 0 0 Z " fill="#5F93DE" transform="translate(37,37)"/>
<path d="M0 0 C0.66 0.33 1.32 0.66 2 1 C0.02 2.98 -1.96 4.96 -4 7 C-4.99 6.67 -5.98 6.34 -7 6 C-4.69 4.02 -2.38 2.04 0 0 Z " fill="#A6A6A6" transform="translate(254,33)"/>
<path d="M0 0 C2.26185454 2.26185454 3.03921617 3.96983561 4 7 C3.67 7.99 3.34 8.98 3 10 C-1.06153846 4.58461538 -1.06153846 4.58461538 -0.75 1.625 C-0.5025 1.08875 -0.255 0.5525 0 0 Z " fill="#989894" transform="translate(184,48)"/>
<path d="M0 0 C0.66 0.33 1.32 0.66 2 1 C0.29374499 3.78388975 -0.47626739 4.85384206 -3.6875 5.75 C-4.8321875 5.87375 -4.8321875 5.87375 -6 6 C-4 4 -2 2 0 0 Z " fill="#54729B" transform="translate(25,6)"/>
<path d="" fill="#000000" transform="translate(0,0)"/>
<path d="" fill="#000000" transform="translate(0,0)"/>
<path d="" fill="#000000" transform="translate(0,0)"/>
<path d="" fill="#000000" transform="translate(0,0)"/>
<path d="" fill="#000000" transform="translate(0,0)"/>
<path d="" fill="#000000" transform="translate(0,0)"/>
<path d="" fill="#000000" transform="translate(0,0)"/>
</svg>
